<svg id="图层_1" data-name="图层 1" xmlns="http://www.w3.org/2000/svg" viewBox="0 0 746.98 746.98"><defs><style>.cls-1{fill:none;stroke:red;stroke-miterlimit:10;fill-rule:evenodd;}</style></defs><path class="cls-1" d="M350.82,721.25c-.21,2.71-.39,5.42-.57,8.16,6.11.33,12.28.55,18.43.69.07-4.07.13-8.17.2-12.24s.13-8.17.18-12.24c-5.68-.14-11.4-.29-17.05-.69s-11.28-.91-16.88-1.5c-.88,6.77-1.77,13.51-2.65,20.28s-1.77,13.51-2.63,20.25c14.36,1.38,28.86,2.53,43.4,2.52s29.08-1.11,43.42-2.48c-.84-6.76-1.72-13.53-2.56-20.29s-1.7-13.5-2.56-20.24c-5.59.55-11.22,1.13-16.87,1.49s-11.38.52-17.07.66q.08,6.12.16,12.23t.15,12.28c6.17-.15,12.33-.37,18.44-.71-.18-2.73-.37-5.44-.55-8.17"/><path class="cls-1" d="M351,25.73c-.21-2.71-.39-5.42-.57-8.16,6.11-.33,12.28-.55,18.43-.69.07,4.07.12,8.17.2,12.24s.13,8.17.18,12.24c-5.68.14-11.4.29-17.05.69s-11.28.91-16.88,1.5c-.88-6.77-1.77-13.51-2.65-20.28S330.89,9.76,330,3C344.39,1.64,358.89.49,373.43.5S402.51,1.61,416.85,3c-.84,6.76-1.72,13.53-2.56,20.29s-1.7,13.51-2.56,20.24c-5.59-.55-11.22-1.13-16.87-1.49s-11.38-.52-17.07-.66q.07-6.12.16-12.23t.15-12.28c6.17.15,12.33.37,18.44.71-.18,2.73-.37,5.44-.55,8.17"/><path class="cls-1" d="M527.88,686.09c1.18,2.45,2.38,4.88,3.58,7.35,5.47-2.77,10.92-5.66,16.31-8.62-2-3.56-4-7.13-5.94-10.69s-4-7.14-6-10.7c-5,2.72-10,5.45-15.11,7.93s-10.22,4.85-15.37,7.14c2.63,6.3,5.22,12.58,7.85,18.89s5.22,12.58,7.84,18.86c13.13-6,26.26-12.25,38.86-19.53s24.62-15.5,36.36-23.85c-4.12-5.44-8.26-10.86-12.37-16.3l-12.33-16.25c-4.57,3.28-9.16,6.6-13.87,9.73s-9.59,6.14-14.45,9.11l6.25,10.51,6.27,10.56q7.9-4.82,15.62-9.84c-1.53-2.27-3-4.52-4.56-6.8"/><path class="cls-1" d="M180.27,83.66Q178,80.3,175.7,76.88c5.13-3.34,10.37-6.62,15.62-9.81,2.09,3.49,4.19,7,6.29,10.5s4.2,7,6.28,10.51c-4.85,3-9.72,6-14.42,9.12s-9.31,6.43-13.87,9.74c-4.14-5.42-8.29-10.81-12.43-16.24s-8.29-10.81-12.41-16.22c11.75-8.37,23.73-16.62,36.33-23.89S212.83,37,225.93,31q4,9.42,7.93,18.86t7.91,18.81c-5.13,2.31-10.29,4.63-15.37,7.14s-10.11,5.24-15.11,8l-6-10.67q-3-5.37-6-10.71,8.12-4.44,16.32-8.6c1.21,2.45,2.4,4.89,3.61,7.34"/><path class="cls-1" d="M441.75,715.4c.5,2.66,1,5.33,1.56,8,6-1.26,12-2.64,18-4.1-1-4-2-7.92-3-11.87s-2-7.92-3-11.87c-5.51,1.33-11.08,2.66-16.64,3.75s-11.13,2-16.7,2.91c.91,6.77,1.79,13.51,2.7,20.28s1.79,13.5,2.69,20.24c14.23-2.39,28.53-5,42.58-8.8s27.8-8.6,41.3-13.63q-3.86-9.48-7.73-18.94l-7.71-18.89c-5.26,2-10.55,4-15.91,5.81s-10.85,3.45-16.32,5.06l3.33,11.77q1.65,5.93,3.32,11.82c5.92-1.74,11.81-3.55,17.63-5.46-.88-2.59-1.77-5.16-2.65-7.75"/><path class="cls-1" d="M261.91,43.53c-.9-2.56-1.77-5.14-2.66-7.73,5.82-1.91,11.72-3.72,17.62-5.44,1.12,3.91,2.24,7.86,3.36,11.77s2.24,7.85,3.34,11.78c-5.44,1.6-10.92,3.23-16.28,5.07s-10.66,3.8-15.92,5.82c-2.6-6.31-5.21-12.59-7.8-18.9S238.36,33.31,235.78,27C249.29,22,263,17.11,277.05,13.35s28.38-6.45,42.58-8.84c.94,6.75,1.85,13.52,2.78,20.27s1.85,13.48,2.77,20.21c-5.55.91-11.14,1.81-16.69,2.92s-11.12,2.45-16.66,3.78l-3-11.85q-1.53-6-3-11.9c6-1.46,12-2.84,18-4.09.53,2.69,1,5.35,1.58,8"/><path class="cls-1" d="M603.48,635.49c1.77,2.06,3.56,4.1,5.36,6.17,4.56-4.09,9.08-8.29,13.52-12.54-2.82-2.93-5.68-5.87-8.51-8.8s-5.68-5.86-8.53-8.78c-4.11,3.91-8.26,7.85-12.54,11.57s-8.62,7.33-13,10.87c4.17,5.41,8.3,10.81,12.47,16.21s8.3,10.81,12.46,16.19c11.13-9.18,22.19-18.62,32.47-28.91s19.78-21.35,29-32.46q-8.07-6.27-16.16-12.54L633.85,580c-3.56,4.35-7.14,8.74-10.88,13s-7.67,8.41-11.6,12.53l8.76,8.54,8.79,8.57c4.26-4.46,8.46-9,12.54-13.54l-6.16-5.38"/><path class="cls-1" d="M111.8,143.56c-2.06-1.77-4.1-3.56-6.17-5.37,4.09-4.56,8.29-9.08,12.54-13.52,2.93,2.83,5.87,5.69,8.8,8.51l8.78,8.53c-3.91,4.11-7.85,8.26-11.57,12.54s-7.33,8.62-10.87,13c-5.41-4.17-10.81-8.3-16.21-12.47s-10.81-8.3-16.19-12.45c9.18-11.13,18.62-22.2,28.91-32.48s21.35-19.77,32.46-28.95c4.18,5.38,8.35,10.79,12.53,16.17l12.51,16.11c-4.35,3.57-8.74,7.14-13,10.88s-8.41,7.68-12.54,11.61q-4.26-4.39-8.53-8.77l-8.57-8.79c4.46-4.25,9-8.45,13.54-12.53l5.38,6.16"/><path class="cls-1" d="M663.4,567.06c2.24,1.53,4.5,3.05,6.78,4.58,3.35-5.13,6.62-10.37,9.81-15.62-3.48-2.1-7-4.19-10.49-6.29s-7-4.2-10.52-6.28c-3,4.85-6,9.72-9.12,14.42s-6.42,9.31-9.74,13.87c5.43,4.14,10.82,8.29,16.24,12.43s10.82,8.29,16.22,12.41c8.37-11.75,16.62-23.73,23.89-36.33S710,534.51,716,521.41l-18.86-7.93-18.8-7.91c-2.32,5.13-4.64,10.29-7.15,15.36s-5.23,10.12-8,15.12l10.67,6,10.71,6c3-5.41,5.85-10.86,8.61-16.32l-7.35-3.61"/><path class="cls-1" d="M61.15,219.15c-2.44-1.18-4.88-2.38-7.35-3.59,2.77-5.46,5.66-10.91,8.62-16.3l10.7,5.94c3.56,2,7.13,4,10.69,6-2.72,5-5.44,10-7.93,15.11S71,236.5,68.74,241.65c-6.3-2.63-12.58-5.23-18.88-7.85S37.27,228.57,31,226c6-13.12,12.24-26.25,19.52-38.85S66,162.48,74.38,150.74l16.29,12.37,16.25,12.33c-3.28,4.57-6.59,9.16-9.73,13.87s-6.14,9.59-9.11,14.45l-10.51-6.25L67,191.24q4.8-7.91,9.83-15.62l6.8,4.56"/><path class="cls-1" d="M703.58,485.44c2.56.9,5.14,1.78,7.73,2.66,1.91-5.81,3.72-11.72,5.44-17.62-3.91-1.12-7.86-2.23-11.77-3.36s-7.85-2.24-11.78-3.34c-1.6,5.44-3.23,10.93-5.07,16.29s-3.8,10.66-5.82,15.92c6.31,2.59,12.59,5.2,18.9,7.8s12.59,5.2,18.88,7.79c5-13.52,9.91-27.22,13.67-41.28s6.45-28.37,8.84-42.58L722.33,425c-6.73-.92-13.48-1.86-20.21-2.77-.91,5.55-1.81,11.13-2.92,16.68s-2.45,11.12-3.78,16.66l11.85,3,11.9,3c1.46-6,2.84-12,4.09-18l-8-1.59"/><path class="cls-1" d="M31.81,305.26l-8-1.56c1.26-6,2.64-12,4.1-18l11.87,3c4,1,7.93,2,11.88,3-1.34,5.52-2.67,11.08-3.75,16.65S45.84,319.46,45,325c-6.77-.9-13.51-1.78-20.27-2.69s-13.51-1.79-20.25-2.69c2.39-14.23,5-28.53,8.8-42.59s8.61-27.8,13.64-41.29l18.93,7.73c6.29,2.57,12.61,5.13,18.89,7.7-2,5.27-4,10.55-5.81,15.92s-3.44,10.85-5,16.31L42.07,280.1l-11.82-3.32C32,270.86,33.79,265,35.7,259.15l7.75,2.64"/><path class="cls-1" d="M721.25,396.2c2.71.2,5.42.38,8.16.56.33-6.11.55-12.28.69-18.42-4.07-.08-8.17-.13-12.24-.21s-8.17-.12-12.24-.17c-.14,5.67-.29,11.39-.69,17s-.91,11.28-1.5,16.89c6.77.87,13.51,1.76,20.28,2.64L744,417.17c1.38-14.36,2.53-28.86,2.52-43.41s-1.11-29.08-2.48-43.42l-20.29,2.57-20.24,2.55c.55,5.6,1.13,11.23,1.49,16.88s.52,11.37.66,17.07l12.23-.17,12.28-.15c-.15-6.16-.37-12.33-.71-18.44l-8.17.55"/><path class="cls-1" d="M25.73,396c-2.71.2-5.42.38-8.16.56-.33-6.11-.55-12.28-.69-18.42,4.07-.08,8.17-.13,12.24-.21s8.17-.12,12.24-.17c.14,5.67.29,11.39.69,17s.91,11.28,1.5,16.89c-6.77.87-13.51,1.76-20.28,2.64L3,417C1.64,402.63.49,388.13.5,373.58S1.61,344.5,3,330.16l20.29,2.57,20.24,2.55c-.55,5.6-1.13,11.23-1.49,16.88s-.52,11.37-.66,17.07l-12.23-.17-12.28-.15c.15-6.16.37-12.32.71-18.44l8.17.55"/><path class="cls-1" d="M715.25,305.41c2.67-.5,5.33-1,8-1.56-1.25-6-2.64-12-4.1-18l-11.87,3c-3.95,1-7.92,2-11.87,3,1.33,5.51,2.67,11.08,3.75,16.64s2,11.13,2.92,16.7l20.27-2.7c6.74-.9,13.5-1.78,20.24-2.69-2.38-14.23-5-28.53-8.8-42.58s-8.6-27.8-13.63-41.3l-18.94,7.73-18.89,7.71c2,5.26,4,10.55,5.81,15.91s3.45,10.85,5.06,16.32L705,280.26l11.82-3.33c-1.74-5.92-3.55-11.81-5.46-17.63L703.61,262"/><path class="cls-1" d="M43.38,485.25c-2.56.9-5.13,1.77-7.73,2.66-1.91-5.82-3.72-11.72-5.44-17.62L42,466.93c3.91-1.12,7.86-2.24,11.78-3.34,1.6,5.44,3.23,10.93,5.08,16.29s3.8,10.65,5.82,15.91c-6.32,2.6-12.59,5.21-18.91,7.81s-12.59,5.2-18.88,7.79c-5-13.52-9.91-27.23-13.67-41.28s-6.45-28.38-8.84-42.58c6.75-.93,13.52-1.84,20.27-2.78L44.84,422c.91,5.55,1.81,11.14,2.93,16.69s2.44,11.12,3.78,16.66l-11.86,3-11.9,3q-2.19-9-4.09-18l8-1.58"/><path class="cls-1" d="M686,219.29c2.45-1.18,4.89-2.38,7.35-3.59-2.77-5.46-5.66-10.92-8.62-16.3L674,205.34c-3.56,2-7.14,4-10.69,6,2.71,5,5.44,10,7.92,15.1s4.85,10.23,7.14,15.38c6.3-2.63,12.59-5.23,18.89-7.85s12.58-5.23,18.86-7.85c-6-13.12-12.25-26.25-19.53-38.85s-15.5-24.63-23.85-36.36c-5.44,4.11-10.86,8.25-16.3,12.37l-16.25,12.33c3.28,4.57,6.6,9.16,9.73,13.87S656.06,199,659,203.9l10.51-6.26,10.56-6.27c-3.21-5.26-6.49-10.49-9.84-15.61l-6.79,4.56"/><path class="cls-1" d="M83.53,566.89c-2.24,1.53-4.5,3-6.78,4.57-3.34-5.13-6.62-10.36-9.81-15.61l10.5-6.29c3.48-2.1,7-4.2,10.51-6.28,3,4.84,6,9.72,9.12,14.42s6.43,9.31,9.74,13.87L90.57,584c-5.41,4.12-10.81,8.28-16.22,12.41C66,584.66,57.73,572.68,50.46,560.08S36.89,534.34,30.9,521.23q9.42-4,18.86-7.92l18.81-7.91c2.31,5.13,4.63,10.29,7.14,15.36s5.24,10.11,8,15.12l-10.67,6-10.71,6q-4.44-8.11-8.6-16.33l7.34-3.6"/><path class="cls-1" d="M635.36,143.69c2.06-1.77,4.1-3.56,6.17-5.37-4.09-4.56-8.29-9.08-12.54-13.52-2.93,2.83-5.87,5.69-8.8,8.51l-8.78,8.53c3.91,4.11,7.85,8.27,11.57,12.54s7.33,8.62,10.87,13c5.41-4.16,10.81-8.3,16.21-12.47s10.81-8.3,16.19-12.45c-9.18-11.13-18.62-22.2-28.91-32.48S616,90.21,604.88,81q-6.27,8.09-12.53,16.17l-12.51,16.12c4.35,3.56,8.74,7.13,13,10.87s8.41,7.68,12.54,11.61q4.26-4.38,8.53-8.77l8.57-8.79c-4.46-4.25-9-8.45-13.54-12.53l-5.38,6.16"/><path class="cls-1" d="M143.43,635.37c-1.77,2.06-3.56,4.1-5.37,6.17-4.56-4.09-9.08-8.3-13.52-12.54,2.83-2.93,5.69-5.87,8.51-8.8s5.69-5.87,8.53-8.78c4.11,3.91,8.26,7.85,12.54,11.57s8.62,7.33,13,10.87c-4.17,5.41-8.3,10.8-12.47,16.21s-8.3,10.8-12.45,16.19c-11.13-9.19-22.2-18.62-32.48-28.92S90,616,80.77,604.89l16.17-12.54,16.12-12.5c3.56,4.35,7.13,8.74,10.87,13s7.68,8.42,11.61,12.54l-8.77,8.53c-2.93,2.87-5.87,5.74-8.79,8.58-4.25-4.46-8.45-9-12.53-13.54l6.16-5.39"/><path class="cls-1" d="M566.92,83.76c1.53-2.24,3-4.5,4.57-6.78-5.13-3.35-10.36-6.62-15.62-9.81-2.09,3.48-4.19,7-6.29,10.49s-4.19,7-6.27,10.52c4.84,2.95,9.72,5.95,14.41,9.12s9.32,6.43,13.87,9.74c4.15-5.43,8.29-10.82,12.43-16.24S592.31,80,596.43,74.58C584.68,66.21,572.7,58,560.1,50.69s-25.74-13.57-38.84-19.56q-4,9.42-7.93,18.86l-7.9,18.8c5.12,2.32,10.28,4.64,15.36,7.15s10.11,5.24,15.11,8l6-10.67q3-5.37,6-10.71-8.11-4.44-16.32-8.61c-1.21,2.46-2.4,4.9-3.61,7.35"/><path class="cls-1" d="M219,686c-1.18,2.44-2.38,4.88-3.58,7.35-5.47-2.77-10.92-5.66-16.31-8.62,2-3.56,4-7.14,5.94-10.7s4-7.13,6-10.69c5,2.72,10,5.45,15.11,7.93s10.22,4.85,15.37,7.14c-2.63,6.3-5.22,12.58-7.85,18.88s-5.22,12.59-7.84,18.86c-13.13-6-26.26-12.24-38.86-19.52s-24.62-15.5-36.36-23.86c4.12-5.43,8.26-10.86,12.37-16.29l12.33-16.25c4.57,3.28,9.16,6.59,13.87,9.73s9.59,6.14,14.45,9.11q-3.12,5.25-6.25,10.51l-6.27,10.56q-7.91-4.81-15.62-9.84c1.53-2.27,3-4.52,4.56-6.8"/><path class="cls-1" d="M485.29,43.59c.9-2.56,1.77-5.14,2.66-7.73-5.82-1.91-11.72-3.72-17.62-5.44-1.12,3.91-2.24,7.86-3.36,11.77S464.73,50,463.63,54c5.44,1.6,10.93,3.23,16.29,5.07s10.65,3.8,15.91,5.82c2.6-6.31,5.21-12.59,7.81-18.9s5.2-12.59,7.79-18.88c-13.52-5-27.23-9.91-41.28-13.67S441.77,7,427.57,4.57c-.93,6.75-1.85,13.52-2.78,20.27S422.94,38.32,422,45.05c5.55.91,11.14,1.81,16.69,2.92s11.12,2.45,16.66,3.78q1.5-5.93,3-11.85t3-11.9c-6-1.46-12-2.84-18-4.09-.53,2.69-1.05,5.35-1.58,8"/><path class="cls-1" d="M305.1,715.36c-.5,2.67-1,5.34-1.56,8-6-1.26-12-2.64-18-4.1,1-3.95,2-7.92,3-11.87s2-7.93,3-11.87c5.52,1.33,11.08,2.66,16.65,3.74s11.13,2,16.69,2.92c-.91,6.77-1.79,13.51-2.69,20.27s-1.79,13.51-2.7,20.25c-14.23-2.39-28.53-5-42.58-8.8s-27.8-8.6-41.3-13.64c2.57-6.31,5.17-12.62,7.73-18.93s5.14-12.61,7.71-18.89c5.26,2,10.55,4,15.91,5.81s10.86,3.44,16.32,5.05q-1.66,5.89-3.32,11.77c-1.11,3.95-2.22,7.9-3.33,11.82-5.91-1.73-11.81-3.54-17.62-5.45l2.64-7.75"/></svg>