<svg id="图层_1" data-name="图层 1" xmlns="http://www.w3.org/2000/svg" viewBox="0 0 86.83 43.05"><defs><style>.cls-1{fill:#c51c22;fill-rule:evenodd;}</style></defs><path class="cls-1" d="M39,40.88c-.05-4.1-.1-8.17-.15-12.25s-.08-8.18-.13-12.25q-9.26.21-18.45.7c.18,2.73.36,5.45.55,8.18,3-.2,6-.35,9-.48.1,2.71.21,5.44.34,8.16-5.84.29-11.68.66-17.45,1.14-.41-4.06-.8-8.15-1.21-12.2s-.77-8.13-1.18-12.21c11-.83,22-1.49,33.05-1.49s22.07.65,33,1.49c-.39,4.06-.85,8.12-1.24,12.18S74.33,30,73.91,34.06q-8.67-.72-17.43-1.13c.13-2.72.25-5.41.37-8.15,3,.11,6,.27,9,.46.21-2.72.4-5.42.6-8.16-6.14-.36-12.3-.58-18.46-.7,0,4.07-.13,8.16-.18,12.26s-.14,8.16-.22,12.24c5.69.12,11.39.28,17,.67s11.29.88,16.9,1.49c.88-6.75,1.75-13.52,2.63-20.26S85.93,9.26,86.83,2.5C72.46,1.12,58,0,43.41,0S14.35,1.12,0,2.52C.84,9.27,1.7,16.05,2.54,22.8S4.25,36.3,5.1,43.05c5.61-.57,11.22-1.13,16.88-1.5S33.34,41,39,40.88Z"/></svg>